PathFileType	4	(X/Y/Z)	/Users/itak/Documents/Research/Walk-IL/dataset/trc/00233_00009.trc
DataRate	CameraRate	NumFrames	NumMarkers	Units	OrigDataRate	OrigDataStartFrame	OrigNumFrames
100.000000	100.000000	4	53	mm	100.000000	428	857
Frame#	Time	RPSI			LPSI			L3			STRN			T10			C7			CLAV			RBAK			LBAK			LSHO			LUPA			LAEL			LAOL			LWTS			LWPS			LFRA			LIFD			LHPS			LHTS			RSHO			RUPA			RAEL			RAOL			RWTS			RWPS			RFRA			RIFD			RHTS			RHPS			RBHD			LFHD			RFHD			LBHD			LHIP			RHIP			RASI			LASI			LKNE			LTHI			LANK			LTIP			LTOE			LMT1			LMT5			LHEE			RKNE			RTHI			RANK			RTIP			RTOE			RMT1			RMT5			RHEE			
		X1	Y1	Z1	X2	Y2	Z2	X3	Y3	Z3	X4	Y4	Z4	X5	Y5	Z5	X6	Y6	Z6	X7	Y7	Z7	X8	Y8	Z8	X9	Y9	Z9	X10	Y10	Z10	X11	Y11	Z11	X12	Y12	Z12	X13	Y13	Z13	X14	Y14	Z14	X15	Y15	Z15	X16	Y16	Z16	X17	Y17	Z17	X18	Y18	Z18	X19	Y19	Z19	X20	Y20	Z20	X21	Y21	Z21	X22	Y22	Z22	X23	Y23	Z23	X24	Y24	Z24	X25	Y25	Z25	X26	Y26	Z26	X27	Y27	Z27	X28	Y28	Z28	X29	Y29	Z29	X30	Y30	Z30	X31	Y31	Z31	X32	Y32	Z32	X33	Y33	Z33	X34	Y34	Z34	X35	Y35	Z35	X36	Y36	Z36	X37	Y37	Z37	X38	Y38	Z38	X39	Y39	Z39	X40	Y40	Z40	X41	Y41	Z41	X42	Y42	Z42	X43	Y43	Z43	X44	Y44	Z44	X45	Y45	Z45	X46	Y46	Z46	X47	Y47	Z47	X48	Y48	Z48	X49	Y49	Z49	X50	Y50	Z50	X51	Y51	Z51	X52	Y52	Z52	X53	Y53	Z53	

429	4.28	814.9993286132812	1018.505310058594	-353.2536010742188	733.7206420898438	1011.039611816406	-266.1091613769531	768.1486206054688	1105.521728515625	-300.8874816894531	567.8855590820312	1274.496459960938	-467.2088623046875	772.89306640625	1232.220336914062	-312.3245849609375	713.0126342773438	1489.2158203125	-365.8511657714844	585.7423706054688	1393.614990234375	-460.1560363769531	825.22998046875	1354.290283203125	-369.3335876464844	664.1668701171875	1456.691162109375	-263.6152954101562	558.2146606445312	1452.697509765625	-270.83056640625	549.85205078125	1339.674926757812	-178.4083862304688	553.7171020507812	1130.127319335938	-144.4996948242188	641.0300903320312	1124.477783203125	-146.3751220703125	535.136962890625	890.6380615234375	-235.1262512207031	512.6303100585938	873.0488891601562	-154.7589721679688	538.7753295898438	1020.463989257812	-140.7142181396484	552.4224853515625	698.9961547851562	-229.8896636962891	512.1492309570312	783.2837524414062	-166.5165252685547	504.8361511230469	785.7941284179688	-234.5973968505859	769.3702392578125	1438.487548828125	-531.6841430664062	825.417724609375	1374.791748046875	-572.7857055664062	871.3780517578125	1099.000366210938	-608.3206787109375	851.7201538085938	1085.70458984375	-514.9860229492188	736.1939697265625	887.09716796875	-663.7051391601562	817.3178100585938	875.0714721679688	-688.65234375	857.81494140625	1032.531494140625	-638.3369750976562	723.3323364257812	695.7623291015625	-681.2027587890625	713.0056762695312	769.708740234375	-708.8823852539062	784.9034423828125	769.7020263671875	-719.6334838867188	697.1309814453125	1644.56103515625	-462.1266784667969	471.8294677734375	1653.969116210938	-488.4561767578125	523.9448852539062	1647.388916015625	-573.2494506835938	590.2903442382812	1650.69677734375	-371.6973266601562	564.6214599609375	944.8292236328125	-242.8160095214844	822.72314453125	983.5587768554688	-498.8337707519531	726.0505981445312	1021.44140625	-542.3157958984375	527.913330078125	992.4429931640625	-345.1925354003906	465.3424072265625	498.9370727539062	-423.6395263671875	483.5500183105469	624.9835205078125	-348.2724914550781	467.76171875	24.00590324401855	-526.731201171875	472.3760681152344	270.6729431152344	-457.740966796875	297.3653869628906	100.6980285644531	-633.7693481445312	370.0701293945312	77.99449157714844	-655.9908447265625	347.6344299316406	55.88633346557617	-547.5985717773438	544.1077880859375	27.4598274230957	-551.5697021484375	833.897705078125	501.1585998535156	-433.5533142089844	808.538818359375	758.4440307617188	-521.614990234375	913.4584350585938	27.45728874206543	-283.9846801757812	835.619873046875	384.2990417480469	-407.1032409667969	766.1205444335938	35.70343780517578	-442.5959167480469	760.584716796875	36.67184829711914	-373.8725280761719	882.1904907226562	24.78226089477539	-390.6856689453125	896.5438232421875	36.06976318359375	-201.1226196289062	
430	4.29	809.5966186523438	1017.306762695312	-359.0704345703125	728.9849243164062	1009.948913574219	-271.4171142578125	763.0211791992188	1104.209594726562	-306.201904296875	562.2213134765625	1273.880737304688	-470.9000854492188	767.9597778320312	1230.88671875	-317.1060485839844	707.7540283203125	1488.177124023438	-369.1294860839844	580.0510864257812	1392.915283203125	-463.3457641601562	819.9419555664062	1353.298828125	-373.4486999511719	659.3717651367188	1455.073974609375	-266.8309020996094	553.4185180664062	1451.092163085938	-273.5622253417969	545.59228515625	1337.717895507812	-181.5048370361328	549.6436157226562	1128.19189453125	-148.0942077636719	636.89404296875	1122.522094726562	-150.6447296142578	530.3968505859375	888.627685546875	-238.4141235351562	508.6156921386719	871.1491088867188	-157.9210510253906	534.7805786132812	1018.549255371094	-144.2016754150391	548.5515747070312	697.1436157226562	-232.8438415527344	508.1766967773438	781.3903198242188	-169.4974975585938	500.4761047363281	783.7106323242188	-237.5232238769531	763.596435546875	1438.141479492188	-535.3458251953125	819.5230102539062	1374.4365234375	-576.7376708984375	865.0617065429688	1098.570678710938	-612.6864013671875	845.9404296875	1085.316284179688	-519.2197875976562	729.0230102539062	886.9804077148438	-667.149658203125	809.8948364257812	874.747314453125	-692.6968383789062	851.1575317382812	1032.097045898438	-642.6221923828125	715.8338623046875	695.6923217773438	-684.5035400390625	705.1489868164062	769.6604614257812	-712.131103515625	776.9832763671875	769.4376831054688	-723.3960571289062	691.333740234375	1644.000366210938	-465.1377868652344	465.9715881347656	1653.369873046875	-489.6024475097656	517.2657470703125	1647.05029296875	-574.88427734375	585.1414794921875	1649.861694335938	-373.8483581542969	559.7599487304688	943.8032836914062	-247.7931365966797	816.8165283203125	982.5625	-504.7408752441406	720.0362548828125	1020.70166015625	-547.87890625	522.8294067382812	991.4024047851562	-349.9290771484375	461.11572265625	497.7869873046875	-427.7401733398438	479.3320922851562	623.891845703125	-352.7854309082031	466.6717834472656	23.33674240112305	-527.9971923828125	469.1224365234375	269.3562622070312	-461.3307800292969	294.3266296386719	95.34080505371094	-635.4534301757812	367.1891174316406	73.40096282958984	-657.9362182617188	346.1405334472656	52.96597671508789	-549.1434936523438	542.8168334960938	27.71853828430176	-554.01904296875	830.0358276367188	500.6412963867188	-437.7141723632812	803.4656372070312	757.4129028320312	-526.93115234375	913.5054321289062	28.29107093811035	-284.3352966308594	832.7153930664062	383.8883666992188	-410.3131408691406	766.085205078125	35.68153381347656	-442.631103515625	760.6551513671875	36.78806304931641	-374.0234680175781	882.1905517578125	24.75350570678711	-390.7614440917969	896.8048706054688	37.74282455444336	-201.4769897460938	
431	4.3	804.1006469726562	1016.242126464844	-364.9605712890625	724.1843872070312	1009.082214355469	-276.7191772460938	757.72998046875	1103.045776367188	-311.5857543945312	556.4595947265625	1273.434326171875	-474.6114196777344	762.9345092773438	1229.710693359375	-321.901123046875	702.3897094726562	1487.295043945312	-372.3904724121094	574.267333984375	1392.378662109375	-466.5453491210938	814.5111694335938	1352.430786132812	-377.5130004882812	654.4627685546875	1453.60595703125	-270.0407409667969	548.5255126953125	1449.621215820312	-276.313232421875	541.2122802734375	1335.900390625	-184.6136169433594	545.3386840820312	1126.417602539062	-151.6567535400391	632.5181884765625	1120.677856445312	-154.9173583984375	525.1720581054688	886.7894287109375	-241.5821990966797	504.3266296386719	869.415283203125	-160.9433746337891	530.5386352539062	1016.80078125	-147.6113433837891	544.2173461914062	695.4947509765625	-235.6972808837891	503.8441467285156	779.6724243164062	-172.3348083496094	495.6902770996094	781.7932739257812	-240.2989959716797	757.7688598632812	1437.955444335938	-538.9820556640625	813.5924682617188	1374.239135742188	-580.6424560546875	858.7059326171875	1098.272583007812	-616.9137573242188	840.0416259765625	1085.067626953125	-523.3455810546875	721.9227294921875	886.9568481445312	-670.5491333007812	802.556396484375	874.5433349609375	-696.615966796875	844.498779296875	1031.79052734375	-646.7654418945312	708.4570922851562	695.7337646484375	-687.7913818359375	697.412109375	769.7221069335938	-715.3679809570312	769.1915283203125	769.292724609375	-727.0606689453125	685.4432373046875	1643.613159179688	-468.0841064453125	459.9783630371094	1652.966552734375	-490.6823120117188	510.4903869628906	1646.924072265625	-576.4330444335938	579.9048461914062	1649.1806640625	-375.9352722167969	554.7822875976562	943.1094360351562	-252.6954956054688	810.7239990234375	981.603515625	-510.6883850097656	713.8302612304688	1020.018798828125	-553.45654296875	517.6903076171875	990.6118774414062	-354.6143188476562	456.624755859375	497.0469360351562	-431.9872436523438	474.8477478027344	623.17626953125	-357.4585266113281	466.2317810058594	23.15622901916504	-528.6272583007812	465.8175659179688	268.3389282226562	-464.7727355957031	291.8656921386719	89.42729187011719	-637.0924682617188	364.9798278808594	68.41455078125	-659.6123657226562	345.1110229492188	49.87887954711914	-550.4122314453125	542.0448608398438	28.28884696960449	-555.8185424804688	825.8435668945312	500.1407165527344	-442.0875244140625	798.0972900390625	756.4375	-532.3445434570312	913.5668334960938	29.34296417236328	-284.7740783691406	829.5499267578125	383.4957275390625	-413.7054748535156	766.0360717773438	35.64922714233398	-442.671875	760.7153930664062	36.91568756103516	-374.2049255371094	882.1622924804688	24.74935150146484	-390.8650817871094	897.0869140625	39.64484786987305	-201.8948669433594	
432	4.31	798.5338134765625	1015.333312988281	-370.933837890625	719.3335571289062	1008.472351074219	-282.034912109375	752.3126831054688	1102.063110351562	-317.046875	550.6005249023438	1273.181396484375	-478.3292541503906	757.8275756835938	1228.742065429688	-326.7150268554688	696.9249877929688	1486.600341796875	-375.6527404785156	568.3967895507812	1392.035888671875	-469.7533874511719	808.9534912109375	1351.722778320312	-381.55322265625	649.4585571289062	1452.33349609375	-273.253662109375	543.554443359375	1448.326049804688	-279.0874328613281	536.7229614257812	1334.264282226562	-187.7402648925781	540.8129272460938	1124.841064453125	-155.20166015625	627.9075317382812	1118.982788085938	-159.1997528076172	519.471923828125	885.159423828125	-244.6314392089844	499.7799072265625	867.88232421875	-163.8296813964844	526.05908203125	1015.255859375	-150.9561004638672	539.398681640625	694.0838623046875	-238.4645233154297	499.1661682128906	778.1608276367188	-175.0328521728516	490.4623413085938	780.089599609375	-242.9326782226562	751.8765869140625	1437.956176757812	-542.6160278320312	807.6119995117188	1374.223510742188	-584.5242919921875	852.3086547851562	1098.133422851562	-621.0086059570312	834.02490234375	1085.003540039062	-527.3665771484375	714.8892822265625	887.0421142578125	-673.9071044921875	795.3184204101562	874.4795532226562	-700.4061279296875	837.84423828125	1031.6435546875	-650.7775268554688	701.2202758789062	695.8952026367188	-691.06591796875	689.8170166015625	769.9034423828125	-718.5918579101562	761.5458374023438	769.2804565429688	-730.6240234375	679.4586791992188	1643.4169921875	-470.9790649414062	453.8633117675781	1652.777709960938	-491.7011413574219	503.6184692382812	1647.026123046875	-577.9071044921875	574.5877685546875	1648.670288085938	-377.9693603515625	549.7444458007812	942.79443359375	-257.4856262207031	804.4513549804688	980.6967163085938	-516.6810913085938	707.429443359375	1019.41650390625	-559.0284423828125	512.512451171875	990.133056640625	-359.2059020996094	451.8396606445312	496.7731628417969	-436.3757629394531	470.08984375	622.9140014648438	-362.319580078125	466.2190551757812	23.47433662414551	-528.806884765625	462.3612670898438	267.6675109863281	-468.0697326660156	289.8491516113281	83.34706878662109	-638.7474975585938	363.2871398925781	63.38096237182617	-661.095458984375	344.3392028808594	46.84860992431641	-551.5103759765625	541.5487670898438	29.09970855712891	-557.09716796875	821.2860107421875	499.6797180175781	-446.6802062988281	792.3782958984375	755.5338745117188	-537.8480834960938	913.6190185546875	30.64246940612793	-285.2919921875	826.1068725585938	383.1528015136719	-417.2917175292969	765.9705810546875	35.60470581054688	-442.7229309082031	760.7579345703125	37.05696487426758	-374.4203491210938	882.0948486328125	24.77713775634766	-391.0050354003906	897.383544921875	41.82394409179688	-202.3898773193359	
